<svg xmlns="http://www.w3.org/2000/svg" viewBox="0 0 31.28 31.28"><defs><style>.cls-1{fill:#28bcb2;}</style></defs><g id="Layer_2" data-name="Layer 2"><g id="Capa_1" data-name="Capa 1"><path class="cls-1" d="M15.64,2.82c4.18,0,4.67,0,6.32.09a8.51,8.51,0,0,1,2.91.54,4.8,4.8,0,0,1,1.8,1.17,5.05,5.05,0,0,1,1.17,1.8,8.83,8.83,0,0,1,.53,2.9c.08,1.65.1,2.15.1,6.32s0,4.67-.1,6.32a8.85,8.85,0,0,1-.53,2.91,5.17,5.17,0,0,1-3,3,8.85,8.85,0,0,1-2.91.53c-1.65.08-2.14.1-6.32.1s-4.67,0-6.32-.1a8.83,8.83,0,0,1-2.9-.53,5.05,5.05,0,0,1-1.8-1.17,4.8,4.8,0,0,1-1.17-1.8A8.51,8.51,0,0,1,2.91,22c-.08-1.65-.09-2.14-.09-6.32s0-4.67.09-6.32a8.5,8.5,0,0,1,.54-2.9,4.8,4.8,0,0,1,1.17-1.8,4.8,4.8,0,0,1,1.8-1.17,8.5,8.5,0,0,1,2.9-.54c1.65-.08,2.15-.09,6.32-.09m0-2.82c-4.25,0-4.78,0-6.45.09A11.44,11.44,0,0,0,5.4.82,7.59,7.59,0,0,0,2.63,2.63,7.67,7.67,0,0,0,.82,5.4,11.44,11.44,0,0,0,.09,9.19C0,10.86,0,11.39,0,15.64s0,4.78.09,6.45a11.51,11.51,0,0,0,.73,3.8,7.67,7.67,0,0,0,1.81,2.77,7.56,7.56,0,0,0,2.77,1.8,11.44,11.44,0,0,0,3.79.73c1.67.08,2.2.09,6.45.09s4.78,0,6.45-.09a11.51,11.51,0,0,0,3.8-.73,8,8,0,0,0,4.57-4.57,11.51,11.51,0,0,0,.73-3.8c.08-1.67.09-2.2.09-6.45s0-4.78-.09-6.45a11.44,11.44,0,0,0-.73-3.79,7.64,7.64,0,0,0-1.8-2.77A7.67,7.67,0,0,0,25.89.82a11.51,11.51,0,0,0-3.8-.73C20.42,0,19.89,0,15.64,0"/><path class="cls-1" d="M15.64,7.61a8,8,0,1,0,8,8,8,8,0,0,0-8-8m0,13.25a5.22,5.22,0,1,1,5.22-5.22,5.22,5.22,0,0,1-5.22,5.22"/><path class="cls-1" d="M25.87,7.29A1.88,1.88,0,1,1,24,5.42a1.88,1.88,0,0,1,1.88,1.87"/></g></g></svg>