<svg id="Layer_1" data-name="Layer 1" xmlns="http://www.w3.org/2000/svg" viewBox="0 0 894 898"><defs><style>.cls-1{fill:#191919;}</style></defs><title>JCREA_Artboard 1</title><path class="cls-1" d="M802.14,427.85C769.9,463,730.32,484.69,682.43,486.53,592,490,522,437,513.33,370.69c-17.25-131.95,68.88-213.23,163.21-213.23,48,0,83.73,18.3,115.45,47.64l82.76-93c-44.9-44.27-114-84.49-198.21-84.49C595,27.59,521.6,54.5,466,104.77V39.55H55.83V165.62H315.3V366c0,91-34.73,120.51-102.32,120.51-43.9,0-88.82-25.61-126.83-73L-.23,506.74C57.69,587.62,144.28,616.41,218,616.41c114,0,182-41.56,217.15-104.19,57.21,68.89,141.07,104.19,231.8,104.19,89.43,0,163.78-33.49,218-97.58Z"/><path class="cls-1" d="M0,847.52l26.1-28c11.45,14.28,25,22,38.26,22,20.4,0,30.89-8.86,30.91-36.27l.07-90.49L17,714.65l0-38,123.76.09-.1,132.19c0,39.23-19.41,71.71-74.88,71.66C43.54,880.59,17.41,871.9,0,847.52Z"/><path class="cls-1" d="M166.08,778c0-66.35,42.14-104.82,95.86-104.78,25.41,0,46.26,12.14,59.81,25.5l-25,28c-9.56-8.85-20.34-14.37-34.83-14.38-28.47,0-49.27,24.12-49.3,64.2,0,41.14,20.73,65,51,65,14.46,0,26.4-7.07,36.14-17.64l24.95,27.42c-16.36,19.31-38.81,29.37-65.8,29.35C209,880.71,166,845.53,166.08,778Z"/><path class="cls-1" d="M513.58,877.26l-45.29-80.1c21.42-9.65,35.75-28.29,35.77-57.69,0-47.61-34.9-62.38-77.38-62.41l-71.28,0-.16,200.13,45.47,0,.06-72,23.83,0,38.21,72ZM400.84,713,423,713c23.84,0,36.63,6.67,36.61,26.43,0,19.59-12.81,29.81-36.66,29.79H400.79Z"/><path class="cls-1" d="M547,677.15l132.92.1,0,38-87.53-.06,0,40.14,74.36.06,0,38-74.36-.06,0,46.06,90.6.07,0,38-136-.11Z"/><path class="cls-1" d="M836.81,877.5l48.11,0-62.3-200.18-54.4,0L705.62,877.4l46.45,0,12.27-47.59,60.34,0Zm-63.37-82.94,4.76-18.43c5.09-20,10.68-43.41,15.61-64.53H795c4.81,21.13,10.89,44.57,16,64.56l4.69,18.44Z"/></svg>