<svg xmlns="http://www.w3.org/2000/svg" viewBox="0 0 30.4 24.7"><defs><style>.cls-1{fill:#28bcb2;}</style></defs><g id="Layer_2" data-name="Layer 2"><g id="Capa_1" data-name="Capa 1"><path class="cls-1" d="M0,21.9a17.65,17.65,0,0,0,9.56,2.8c11.58,0,18.12-9.78,17.73-18.55A12.57,12.57,0,0,0,30.4,2.92a12.34,12.34,0,0,1-3.58,1A6.34,6.34,0,0,0,29.56.45,12.43,12.43,0,0,1,25.6,2,6.24,6.24,0,0,0,15,7.66,17.71,17.71,0,0,1,2.12,1.14,6.24,6.24,0,0,0,4.05,9.47a6.26,6.26,0,0,1-2.83-.78,6.23,6.23,0,0,0,5,6.19A6.16,6.16,0,0,1,3.41,15a6.23,6.23,0,0,0,5.82,4.33A12.51,12.51,0,0,1,0,21.9Z"/></g></g></svg>