<svg id="Layer_1" data-name="Layer 1" xmlns="http://www.w3.org/2000/svg" viewBox="0 0 2044 497"><defs><style>.cls-1{fill:#191919;}</style></defs><title>JCREA_Artboard 1 copy</title><path class="cls-1" d="M0,412.53,60.07,348c26.37,32.86,57.54,50.62,88.06,50.65,46.94,0,71.1-20.4,71.14-83.5l.16-208.26L39.2,106.71l.07-87.43,284.84.22-.23,304.23c-.07,90.3-44.68,165-172.35,164.93C100.33,488.63,40.2,468.63,0,412.53Z"/><path class="cls-1" d="M382.35,252.59c.12-152.7,97-241.25,220.62-241.15,58.5,0,106.47,27.94,137.66,58.69l-57.56,64.45c-22-20.38-46.82-33.09-80.17-33.12-65.51,0-113.39,55.52-113.45,147.78C489.37,343.92,537.16,398.9,606.78,399c33.28,0,60.76-16.28,83.17-40.6l57.44,63.1c-37.67,44.44-89.33,67.6-151.45,67.55C481.23,488.91,382.23,408,382.35,252.59Z"/><path class="cls-1" d="M1182.12,481,1077.9,296.62c49.28-22.21,82.27-65.11,82.32-132.78.09-109.58-80.33-143.56-178.09-143.64l-164.06-.12-.35,460.61,104.65.08.12-165.69,54.86,0,87.93,165.75ZM922.65,102.9l50.91,0c54.88,0,84.31,15.35,84.27,60.82,0,45.09-29.49,68.63-84.37,68.59l-50.91,0Z"/><path class="cls-1" d="M1259,20.41l305.9.23-.07,87.4-201.44-.15-.07,92.38,171.15.13-.07,87.4-171.15-.13-.08,106,208.53.16-.07,87.43-313-.24Z"/><path class="cls-1" d="M1926,481.52l110.74.09L1893.39,20.89,1768.2,20.8,1624.11,481.3l106.9.08,28.25-109.53,138.88.1ZM1780.2,290.64l11-42.42c11.72-46,24.59-99.92,35.93-148.52h2.83c11.08,48.62,25.07,102.59,36.73,148.58l10.8,42.44Z"/></svg>